<svg id="Camada_2" data-name="Camada 2" xmlns="http://www.w3.org/2000/svg" viewBox="0 0 226.89 210.38"><defs><style>.cls-1{fill:#191919;}</style></defs><title>Dark logo</title><g id="Camada_1" data-name="Camada 1"><path id="Caminho_13" data-name="Caminho 13" class="cls-1" d="M.29,209.15V177.7h6.9a44.76,44.76,0,0,1,9.46.68,12.89,12.89,0,0,1,4.81,2.26A13.26,13.26,0,0,1,25.59,186,18.84,18.84,0,0,1,27,193.45a18.35,18.35,0,0,1-1.41,7.42,13.45,13.45,0,0,1-4.13,5.34,13,13,0,0,1-4.7,2.27,35.82,35.82,0,0,1-8.2.67Zm5.12-4.61H9.7a21.61,21.61,0,0,0,5.32-.48,7.62,7.62,0,0,0,3.08-1.59,9.52,9.52,0,0,0,2.68-3.79,16,16,0,0,0,0-10.55,9.59,9.59,0,0,0-2.68-3.79,8,8,0,0,0-3.19-1.59,26.31,26.31,0,0,0-5.81-.47H5.41Z"/><path id="Caminho_14" data-name="Caminho 14" class="cls-1" d="M41.31,209.15V177.7H58.86V182H46.42v7.89H58.86v4.49H46.42v10.16H58.86v4.57Z"/><path id="Caminho_15" data-name="Caminho 15" class="cls-1" d="M83.17,210.38l-14-32.68h5.31l7,16.76a25.69,25.69,0,0,1,1,2.7,21.54,21.54,0,0,1,.65,2.35,22.9,22.9,0,0,1,.71-2.45c.28-.85.62-1.71,1-2.6l7-16.76H97.2Z"/><path id="Caminho_16" data-name="Caminho 16" class="cls-1" d="M108.82,209.15V177.7h6.9a44.76,44.76,0,0,1,9.46.68,12.89,12.89,0,0,1,4.81,2.26,13.23,13.23,0,0,1,4.13,5.35,20.33,20.33,0,0,1,0,14.88,13.45,13.45,0,0,1-4.13,5.34,12.83,12.83,0,0,1-4.7,2.27,35.73,35.73,0,0,1-8.19.67Zm5.12-4.61h4.29a21.61,21.61,0,0,0,5.32-.48,7.62,7.62,0,0,0,3.08-1.59,9.52,9.52,0,0,0,2.68-3.79,16,16,0,0,0,0-10.55,9.59,9.59,0,0,0-2.68-3.79,8,8,0,0,0-3.19-1.59,26.31,26.31,0,0,0-5.81-.47h-3.69Z"/><path id="Caminho_17" data-name="Caminho 17" class="cls-1" d="M169.84,209.15l-3.56-8.1H153.82l-3.65,8.1h-5.38L160,176.46l15.21,32.69ZM155.71,196.8h8.76l-3.22-7.17c-.19-.46-.38-1-.58-1.58s-.4-1.26-.6-2c-.17.69-.36,1.33-.55,1.92s-.39,1.14-.59,1.65Z"/><path id="Caminho_18" data-name="Caminho 18" class="cls-1" d="M195.87,210.38l-14-32.68h5.3l7.05,16.76a25.69,25.69,0,0,1,1,2.7,21.54,21.54,0,0,1,.65,2.35,22.9,22.9,0,0,1,.71-2.45c.28-.85.62-1.71,1-2.6l7-16.76h5.29Z"/><path id="Caminho_19" data-name="Caminho 19" class="cls-1" d="M221.61,209.15V177.7h5.11v31.45Z"/><path id="Caminho_20" data-name="Caminho 20" class="cls-1" d="M226.89.17v101.4a55.2,55.2,0,0,1-4.39,21.84,57.9,57.9,0,0,1-12.05,18.07,56.35,56.35,0,1,1-79.69-79.69,58.16,58.16,0,0,1,18.07-12,55.2,55.2,0,0,1,21.84-4.39h33.88V.17ZM170.67,135.71a33.27,33.27,0,0,0,13.17-2.63,33.91,33.91,0,0,0,20.71-31.51V67.69H170.67a33.87,33.87,0,0,0-31.5,20.71,33.11,33.11,0,0,0-2.64,13.17,33.93,33.93,0,0,0,33.72,34.14Z"/><path id="Caminho_21" data-name="Caminho 21" class="cls-1" d="M83.63,160.57H49L99.48,0h34.63Z"/><path id="Caminho_22" data-name="Caminho 22" class="cls-1" d="M34.63,160.57H0L50.48,0H85.11Z"/></g></svg>